<svg xmlns="http://www.w3.org/2000/svg" width="512" height="512" viewBox="0 0 512 512">
  <!-- Background -->
  <rect width="512" height="512" rx="96" fill="#0f172a"/>
  <!-- Subtle indigo glow -->
  <circle cx="256" cy="236" r="200" fill="#6366f1" opacity="0.12"/>
  <!-- Bolt mark — scaled from 48×46 source to ~234×224 centred -->
  <g transform="translate(139, 144) scale(4.875)">
    <path fill="#863bff" d="M25.946 44.938c-.664.845-2.021.375-2.021-.698V33.937a2.26 2.26 0 0 0-2.262-2.262H10.287c-.92 0-1.456-1.04-.92-1.788l7.48-10.471c1.07-1.497 0-3.578-1.842-3.578H1.237c-.92 0-1.456-1.04-.92-1.788L10.013.474c.214-.297.556-.474.92-.474h28.894c.92 0 1.456 1.04.92 1.788l-7.48 10.471c-1.07 1.498 0 3.579 1.842 3.579h11.377c.943 0 1.473 1.088.89 1.83L25.947 44.94z"/>
    <!-- Inner highlight shimmer -->
    <ellipse cx="14" cy="10" rx="6" ry="18" fill="#ede6ff" opacity="0.18" transform="rotate(2)"/>
    <ellipse cx="34" cy="34" rx="5" ry="14" fill="#47bfff" opacity="0.22" transform="rotate(38 34 34)"/>
  </g>
</svg>
